# xmcd
#
# Track frame offsets:
#  150
#  14661
#  24796
#  38500
#  54924
#  67556
#  82148
#  94653
#  107231
#  116864
#  126975
#
# Disc length: 1822 seconds
#
# Revision: 0
# Processed by: cddbd v1.5.1PL2 Copyright (c) Steve Scherf et al.
# Submitted via: Collectorz.com_Music_Collector 6.9
#
DISCID=85071c0b
DTITLE=David Allan Coe - Penitentiary blues
DYEAR=1969
DGENRE=Country
TTITLE0=Penitentiary blues
TTITLE1=Cell #33
TTITLE2=Monkey david wine
TTITLE3=Walkin' bum
TTITLE4=One way ticket to nowhere
TTITLE5=Funeral parlor blues
TTITLE6=Death row
TTITLE7=Oh warden
TTITLE8=Age 21
TTITLE9=Little david
TTITLE10=Conjer man
EXTD=
EXTT0=
EXTT1=
EXTT2=
EXTT3=
EXTT4=
EXTT5=
EXTT6=
EXTT7=
EXTT8=
EXTT9=
EXTT10=
PLAYORDER=
